<?xml version="1.0" encoding="utf-8"?>
<!-- Generator: Adobe Illustrator 19.0.0, SVG Export Plug-In . SVG Version: 6.00 Build 0)  -->
<svg version="1.1" id="layer" xmlns="http://www.w3.org/2000/svg" xmlns:xlink="http://www.w3.org/1999/xlink" x="0px" y="0px"
	 viewBox="-153 -46 652 652" style="enable-background:new -153 -46 652 652;" xml:space="preserve">
<style type="text/css">
	.st0{fill:#0068B6;}
</style>
<polygon class="st0" points="38.8,125.9 -23.4,125.9 -68.3,197.9 -68.3,126.2 -131.1,126.2 -131.1,339.1 -68.3,339.1 -68.3,266 
	-26.5,339.1 49.7,339.1 -18,220.9 "/>
<path class="st0" d="M265.1,268.3l-15.6-55.7h-64.8l35.4,126.5h24.5l-7.3,25.5c0,0-10.2,30.8-46.1,35.5l51.8,25.2
	c0,0,28.6-17,39.1-53.3l44.8-153.6l-44.4-11.1L265.1,268.3z"/>
<path class="st0" d="M112.5,205.6c-38.5,0-69.7,31.2-69.7,69.8s31.2,69.7,69.7,69.7c38.5,0,69.6-30.9,69.6-69.4
	C182.6,237.6,151,205.6,112.5,205.6 M112.9,308.5c-8.1,0-14.6-14.6-14.6-32.7c0-18,6.6-32.7,14.6-32.7c8.1,0,14.9,15.1,14.4,32.6
	C127.3,293.8,120.9,308.5,112.9,308.5"/>
<path class="st0" d="M399.4,205.6c-38.5,0-69.7,31.2-69.7,69.8s31.2,69.7,69.7,69.7s69.5-30.9,69.5-69.4
	C469.4,237.6,437.9,205.6,399.4,205.6 M399.7,308.5c-8.1,0-14.6-14.6-14.6-32.7c0-18,6.5-32.7,14.6-32.7c8.1,0,15,15.1,14.4,32.6
	C414.1,293.8,407.7,308.5,399.7,308.5"/>
</svg>
